<?xml version="1.0" encoding="UTF-8" standalone="no"?>
<!-- Created with Inkscape (http://www.inkscape.org/) -->

<svg
   width="108.92688mm"
   height="16.9554mm"
   viewBox="0 0 108.92688 16.9554"
   version="1.1"
   id="svg1"
   xmlns="http://www.w3.org/2000/svg"
   xmlns:svg="http://www.w3.org/2000/svg">
  <defs
     id="defs1" />
  <g
     id="layer1"
     transform="translate(-23.678175,-102.58104)">
    <path
       d="m 23.678176,119.27184 6.76893,-9.62423 v 2.51355 l -6.239763,-9.31555 h 3.847486 l 1.819013,2.78915 q 0.352778,0.54019 0.683507,1.09141 0.341754,0.54019 0.672484,1.08038 0.341753,0.5402 0.661459,1.08039 h -0.870921 q 0.341753,-0.54019 0.672483,-1.08039 0.341754,-0.54019 0.683508,-1.08038 0.352778,-0.55122 0.705556,-1.09141 l 1.852085,-2.78915 h 3.759292 l -6.140544,9.13916 v -2.4033 l 6.61459,9.69037 h -3.924657 l -2.304082,-3.47266 q -0.297657,-0.46302 -0.595313,-0.91502 -0.297657,-0.45199 -0.595313,-0.90399 -0.286633,-0.452 -0.584289,-0.91502 h 0.529167 q -0.297657,0.46302 -0.595313,0.91502 -0.286632,0.452 -0.595313,0.90399 -0.297657,0.452 -0.617362,0.91502 l -2.370228,3.47266 z m 22.679216,0.26459 q -2.248961,0 -4.023876,-1.02526 -1.76389,-1.03629 -2.778128,-2.93247 -1.003212,-1.90721 -1.003212,-4.50895 0,-2.62379 1.003212,-4.53099 1.014238,-1.90721 2.778128,-2.93247 1.774915,-1.02526 4.023876,-1.02526 1.444185,0 2.678909,0.42995 1.234723,0.42994 2.182815,1.22369 0.959115,0.79376 1.565453,1.90721 0.606337,1.11346 0.804775,2.4915 h -3.428563 q -0.143316,-0.72761 -0.474045,-1.28985 -0.33073,-0.57326 -0.8158,-0.95911 -0.48507,-0.39688 -1.113456,-0.59532 -0.617362,-0.20946 -1.355991,-0.20946 -1.400088,0 -2.392277,0.67248 -0.981164,0.67249 -1.510331,1.90721 -0.529167,1.2237 -0.529167,2.91042 0,1.6757 0.518143,2.8994 0.529167,1.2237 1.521355,1.89618 0.992189,0.67248 2.392277,0.67248 0.738629,0 1.355991,-0.19844 0.617362,-0.19843 1.102432,-0.59531 0.48507,-0.39687 0.815799,-0.95911 0.33073,-0.56224 0.496094,-1.27882 h 3.417539 q -0.198438,1.36701 -0.804775,2.48047 -0.606338,1.11345 -1.565453,1.9072 -0.959116,0.79375 -2.193839,1.2237 -1.2237,0.41893 -2.667885,0.41893 z m 16.404184,0 q -2.326131,0 -4.090021,-1.05834 -1.752867,-1.05833 -2.745055,-2.96554 -0.981165,-1.90721 -0.981165,-4.4428 0,-2.62379 1.014238,-4.53099 1.014237,-1.90721 2.778127,-2.93247 1.763891,-1.02526 3.968754,-1.02526 1.411113,0 2.656861,0.41892 1.245748,0.4079 2.204863,1.1796 0.97014,0.76068 1.587502,1.81902 0.617362,1.05833 0.771702,2.34818 h -3.439587 q -0.143316,-0.62839 -0.451997,-1.13551 -0.308681,-0.51814 -0.793751,-0.88194 -0.474045,-0.36381 -1.091407,-0.55122 -0.606337,-0.19844 -1.344967,-0.19844 -1.378039,0 -2.381252,0.67248 -0.992189,0.66146 -1.53238,1.89619 -0.529167,1.2237 -0.529167,2.92144 0,1.68672 0.540191,2.91042 0.540192,1.2237 1.543405,1.89618 1.003212,0.66146 2.403301,0.66146 1.146529,0 2.01745,-0.42995 0.870921,-0.44097 1.355991,-1.2237 0.496094,-0.79375 0.496094,-1.83003 l 0.804775,0.0661 h -4.387678 v -2.57969 h 6.901222 v 2.09462 q 0,2.0395 -0.937067,3.59393 -0.926042,1.55443 -2.568666,2.43638 -1.642623,0.87092 -3.770316,0.87092 z m 21.442297,0 q -2.24896,0 -4.023875,-1.02526 -1.763891,-1.03629 -2.778128,-2.93247 -1.003213,-1.90721 -1.003213,-4.50895 0,-2.62379 1.003213,-4.53099 1.014237,-1.90721 2.778128,-2.93247 1.774915,-1.02526 4.023875,-1.02526 1.444186,0 2.678909,0.42995 1.234724,0.42994 2.182815,1.22369 0.959115,0.79376 1.565453,1.90721 0.606337,1.11346 0.804775,2.4915 h -3.428563 q -0.143316,-0.72761 -0.474045,-1.28985 -0.33073,-0.57326 -0.8158,-0.95911 -0.48507,-0.39688 -1.113456,-0.59532 -0.617361,-0.20946 -1.355991,-0.20946 -1.400088,0 -2.392276,0.67248 -0.981164,0.67249 -1.510332,1.90721 -0.529167,1.2237 -0.529167,2.91042 0,1.6757 0.518143,2.8994 0.529167,1.2237 1.521356,1.89618 0.992188,0.67248 2.392276,0.67248 0.73863,0 1.355991,-0.19844 0.617362,-0.19843 1.102432,-0.59531 0.48507,-0.39687 0.8158,-0.95911 0.330729,-0.56224 0.496094,-1.27882 h 3.417538 q -0.198438,1.36701 -0.804775,2.48047 -0.606338,1.11345 -1.565453,1.9072 -0.959116,0.79375 -2.193839,1.2237 -1.223699,0.41893 -2.667885,0.41893 z m 14.441854,0 q -1.752866,0 -3.086809,-0.76068 -1.333942,-0.76068 -2.083595,-2.12769 -0.73863,-1.36702 -0.73863,-3.18603 0,-1.83004 0.73863,-3.19705 0.749653,-1.36702 2.083595,-2.1277 1.333943,-0.7717 3.086809,-0.7717 1.774913,0 3.097833,0.7717 1.33394,0.76068 2.07257,2.1277 0.74966,1.36701 0.74966,3.19705 0,1.81901 -0.74966,3.18603 -0.73863,1.36701 -2.07257,2.12769 -1.32292,0.76068 -3.097833,0.76068 z m 0,-2.63482 q 0.793751,0 1.389063,-0.40789 0.59531,-0.41893 0.92604,-1.19063 0.33073,-0.7717 0.33073,-1.84106 0,-1.09141 -0.33073,-1.86311 -0.33073,-0.7717 -0.92604,-1.1796 -0.595312,-0.41893 -1.389063,-0.41893 -0.782726,0 -1.37804,0.41893 -0.595313,0.4079 -0.926042,1.1796 -0.33073,0.7717 -0.33073,1.86311 0,1.08038 0.33073,1.85208 0.330729,0.76068 0.926042,1.17961 0.595314,0.40789 1.37804,0.40789 z m 14.485953,-9.27145 v 2.54662 h -7.72805 v -2.54662 z m -5.6224,11.64168 v -13.15201 q 0,-1.0914 0.41892,-1.81901 0.42995,-0.7276 1.2678,-1.09141 0.83784,-0.3638 2.09462,-0.3638 0.58428,0 1.11345,0 0.52917,0 0.72761,0 v 2.54662 q -0.13229,0 -0.4961,0 -0.3638,0 -0.60633,0 -0.69454,0 -0.99219,0.29765 -0.28664,0.28664 -0.28664,0.98117 v 12.60079 z m 12.79264,-11.64168 v 2.54662 h -7.72805 v -2.54662 z m -5.6224,11.64168 v -13.15201 q 0,-1.0914 0.41892,-1.81901 0.42995,-0.7276 1.2678,-1.09141 0.83785,-0.3638 2.09462,-0.3638 0.58429,0 1.11345,0 0.52917,0 0.72761,0 v 2.54662 q -0.13229,0 -0.4961,0 -0.3638,0 -0.60633,0 -0.69453,0 -0.99219,0.29765 -0.28663,0.28664 -0.28663,0.98117 v 12.60079 z m 12.30314,0.26459 q -1.76389,0 -3.07579,-0.77171 -1.30087,-0.78272 -2.02847,-2.16076 -0.71658,-1.37804 -0.71658,-3.14193 0,-1.78594 0.7276,-3.15296 0.73863,-1.37804 2.02848,-2.16076 1.28984,-0.78273 2.95451,-0.78273 1.28985,0 2.33716,0.44097 1.04731,0.42995 1.80799,1.24575 0.76068,0.80478 1.16858,1.90721 0.41892,1.10243 0.41892,2.43637 v 0.87092 h -10.28569 v -2.07257 h 8.72024 l -1.46624,0.4961 q 0,-0.88195 -0.3197,-1.52136 -0.31971,-0.63941 -0.91502,-0.98116 -0.58429,-0.35278 -1.40009,-0.35278 -0.80477,0 -1.38906,0.35278 -0.58429,0.34175 -0.904,0.98116 -0.3197,0.63941 -0.3197,1.52136 v 1.41111 q 0,0.90399 0.3197,1.5875 0.33073,0.67248 0.94809,1.04731 0.61737,0.3638 1.48829,0.3638 0.63941,0 1.12448,-0.17639 0.49609,-0.18741 0.82682,-0.51814 0.34175,-0.34175 0.48507,-0.79375 h 2.96554 q -0.20946,1.15755 -0.98116,2.0395 -0.7717,0.88194 -1.94028,1.38906 -1.16858,0.4961 -2.57969,0.4961 z"
       id="text1"
       style="font-weight:bold;font-size:22.5778px;font-family:Inter;-inkscape-font-specification:'Inter Bold';text-align:center;text-anchor:middle;fill:#ffffff;stroke-width:0.264583"
       aria-label="XCG Coffe" />
  </g>
</svg>
